<svg xmlns="http://www.w3.org/2000/svg" viewBox="0 0 283.46 283.46">
  <defs>
    <style>
      .cls-1 {
        fill: #ee5425;
      }

      .cls-2 {
        fill: #252525;
      }
    </style>
  </defs>
  <g id="Layer_2" data-name="Layer 2">
    <g>
      <path class="cls-1" d="M130.78,249.56l-14.25-14L158,194.09l25.15.78Z"/>
      <path class="cls-1" d="M137.64,168.35l-14.25-14,44.25-46.42,14.57,13.35Z"/>
      <path class="cls-1" d="M83.57,53.13q.17-9.62.32-19.23l117.8.06L150.18,89.78a47.3,47.3,0,0,0-14.63,1c-1.45.32-4.94,1.23-13.21,5.07-2.83,1.31-5.2,2.49-7.16,3.51-5.67,3-7.92,4.48-8.2,4.12-.58-.71,7.71-8.22,8-8.51,7.73-7,20.58-19.17,43.09-41.93Z"/>
      <path class="cls-2" d="M182.32,195.6l-10.44-10.72c-2.51,2.22-14.4,12.32-32.06,11.52a45.57,45.57,0,0,1-28.06-11.59A46.83,46.83,0,0,1,97,156.43a45.68,45.68,0,0,1,16.11-40.81,45.57,45.57,0,0,1,53.82-2.87A46,46,0,0,1,182,130.08a46.64,46.64,0,0,1,5,19.29c.57,19.38-12.44,32.81-15.16,35.51l10.44,10.72a60.41,60.41,0,0,0,11.13-13.54,61,61,0,0,0,8.18-23.5A61.14,61.14,0,0,0,178.34,102a60.07,60.07,0,0,0-81.21,7.37,61.39,61.39,0,0,0-14.47,53.93,62.65,62.65,0,0,0,4.83,13.83,63.75,63.75,0,0,0,6.76,11,61.59,61.59,0,0,0,16,14.39,60.39,60.39,0,0,0,18.77,7.73,61.55,61.55,0,0,0,17.38,1,60.54,60.54,0,0,0,12-2.19,59.66,59.66,0,0,0,10-3.9A60.49,60.49,0,0,0,182.32,195.6Z"/>
    </g>
  </g>
</svg>
