<svg xmlns="http://www.w3.org/2000/svg" xmlns:xlink="http://www.w3.org/1999/xlink" id="_3" data-name="3" width="515.111" height="876.667" viewBox="0 0 515.111 876.667"><defs><linearGradient id="linear-gradient" x1="0.513" y1="1.576" x2="0.489" y2="-0.442" gradientUnits="objectBoundingBox"><stop offset="0" stop-color="#ee4024"></stop><stop offset="1" stop-color="#96240b"></stop></linearGradient><linearGradient id="linear-gradient-2" x1="0.291" y1="1.503" x2="0.832" y2="-1.093" xlink:href="#linear-gradient"></linearGradient><linearGradient id="linear-gradient-3" x1="0.583" y1="0.563" x2="0.644" y2="0.87" xlink:href="#linear-gradient"></linearGradient></defs><rect id="Rectangle_1120" data-name="Rectangle 1120" width="302.562" height="65.845" transform="translate(188.357 830.108) rotate(-45)" fill="url(#linear-gradient)" style="isolation: isolate"></rect><rect id="Rectangle_1121" data-name="Rectangle 1121" width="302.562" height="65.845" transform="translate(188.357 507.126) rotate(-45)" fill="url(#linear-gradient-2)" style="isolation: isolate"></rect><path id="Path_5350" data-name="Path 5350" d="M931.76,294.13c142.016,0,257.56,115.544,257.56,257.56S1073.776,809.24,931.76,809.24,674.209,693.7,674.209,551.69,789.746,294.13,931.76,294.13Zm0,448.858c105.484,0,191.308-85.814,191.308-191.3S1037.244,360.382,931.76,360.382s-191.3,85.824-191.3,191.308S826.275,742.988,931.76,742.988Z" transform="translate(-674.209 -61.054)" fill="#f9fbf7" style="isolation: isolate"></path><path id="Path_5351" data-name="Path 5351" d="M757.354,487.019h.093a256.247,256.247,0,0,1,162.148-57.7c3.588,0,7.076.393,10.629.538l233.612-233.614H681.892v88.543h277.7Z" transform="translate(-663.599 -196.241)" fill="url(#linear-gradient-3)" style="isolation: isolate"></path></svg>