<svg xmlns="http://www.w3.org/2000/svg" id="_369_Logo" data-name="369 Logo" width="151.799" height="69.463" viewBox="0 0 151.799 69.463"><path id="Path_5342" data-name="Path 5342" d="M339.453,119.585a23.912,23.912,0,1,1-23.91,23.912A23.94,23.94,0,0,1,339.453,119.585Zm0,41.673A17.761,17.761,0,1,0,321.694,143.5,17.782,17.782,0,0,0,339.453,161.258Z" transform="translate(-262.786 -97.946)" fill="#fafcf7" style="isolation: isolate"></path><path id="Path_5343" data-name="Path 5343" d="M336.359,126.366c.334,0,.658.037.987.051l14.395-14.395-5.7-5.047L321.3,131.723h.009A23.786,23.786,0,0,1,336.359,126.366Z" transform="translate(-259.692 -104.727)" fill="#ff4e00" style="isolation: isolate"></path><path id="Path_5344" data-name="Path 5344" d="M372.763,154.8a23.912,23.912,0,1,1,23.912-23.912A23.941,23.941,0,0,1,372.763,154.8Zm0-41.673a17.761,17.761,0,1,0,17.761,17.761A17.782,17.782,0,0,0,372.763,113.126Z" transform="translate(-244.876 -104.727)" fill="#fafcf7" style="isolation: isolate"></path><path id="Path_5345" data-name="Path 5345" d="M369.78,139.948c-.334,0-.657-.035-.987-.049L354.4,154.293l5.7,5.047,24.748-24.748h-.009A23.786,23.786,0,0,1,369.78,139.948Z" transform="translate(-241.892 -89.877)" fill="#ff4e00" style="isolation: isolate"></path><path id="Path_5346" data-name="Path 5346" d="M289.439,132.51h.009a23.786,23.786,0,0,1,15.053-5.357c.334,0,.658.037.987.051l21.69-21.69H282.433v8.221h25.782Z" transform="translate(-280.591 -105.513)" fill="#ff4e00" style="isolation: isolate"></path><path id="Path_5347" data-name="Path 5347" d="M305.145,119.585a23.814,23.814,0,0,0-16.588,6.729l5.078,3.707a17.822,17.822,0,1,1-4.575,6.011l-5.035-3.677A23.9,23.9,0,1,0,329.059,143.5,23.94,23.94,0,0,0,305.145,119.585Z" transform="translate(-281.235 -97.946)" fill="#fafcf7" style="isolation: isolate"></path></svg>