<svg width="34" height="34" viewBox="0 0 34 34" fill="none" xmlns="http://www.w3.org/2000/svg">
<path fill-rule="evenodd" clip-rule="evenodd" d="M2.14521 2.14521V14.2804L19.7196 31.8548L31.8548 19.7196L14.2804 2.14521L2.14521 2.14521ZM0 14.2804C4.97277e-07 14.8493 0.226013 15.395 0.628318 15.7973L18.2027 33.3717C19.0405 34.2094 20.3988 34.2094 21.2365 33.3717L33.3717 21.2365C34.2094 20.3988 34.2094 19.0405 33.3717 18.2027L15.7973 0.628318C15.395 0.226013 14.8493 -1.03976e-06 14.2804 4.06863e-07L2.14521 0C0.960445 -5.8769e-07 2.26035e-07 0.960442 4.5207e-08 2.14521L0 14.2804Z" fill="#f05223"/>
<path fill-rule="evenodd" clip-rule="evenodd" d="M9.10098 6.06782C9.93873 6.90558 9.93873 8.26385 9.10098 9.10161C8.26322 9.93937 6.90494 9.93937 6.06719 9.10161C5.22943 8.26385 5.22943 6.90558 6.06719 6.06782C6.90494 5.23006 8.26322 5.23006 9.10098 6.06782Z" fill="#f05223"/>
</svg>
