<svg width="32" height="28" viewBox="0 0 32 28" fill="none" xmlns="http://www.w3.org/2000/svg">
<path d="M27.8662 7.06641L25.8897 25.1467C25.8265 25.6571 25.5686 26.1278 25.1647 26.4694C24.7609 26.811 24.2392 26.9996 23.6988 26.9997H7.76767C7.22724 26.9996 6.70562 26.811 6.30177 26.4694C5.89792 26.1278 5.63995 25.6571 5.57678 25.1467L3.59961 7.06641" stroke="#AAB0B7" stroke-width="1.5" stroke-linecap="round" stroke-linejoin="round"/>
<path d="M29.4142 1H2.05238C1.47117 1 1 1.54323 1 2.21333V5.85331C1 6.52342 1.47117 7.06664 2.05238 7.06664H29.4142C29.9954 7.06664 30.4665 6.52342 30.4665 5.85331V2.21333C30.4665 1.54323 29.9954 1 29.4142 1Z" stroke="#AAB0B7" stroke-width="1.5" stroke-linecap="round" stroke-linejoin="round"/>
<path d="M19.1999 13.1328L12.2666 20.0661" stroke="#AAB0B7" stroke-width="1.5" stroke-linecap="round" stroke-linejoin="round"/>
<path d="M19.1999 20.0661L12.2666 13.1328" stroke="#AAB0B7" stroke-width="1.5" stroke-linecap="round" stroke-linejoin="round"/>
</svg>
