<?xml version="1.0" encoding="UTF-8"?>
<svg xmlns="http://www.w3.org/2000/svg" xmlns:xlink="http://www.w3.org/1999/xlink" viewBox="0 0 48 48" width="48px" height="48px">
<g id="surface2556973">
<path style=" stroke:none;fill-rule:nonzero;fill:rgb(80.000001%,80.000001%,80.000001%);fill-opacity:1;" d="M 39.960938 11.378906 C 36.601562 8.699219 31.800781 7.960938 29.71875 7.738281 L 29.640625 7.738281 C 29.320312 7.738281 29.019531 7.921875 28.921875 8.21875 C 28.738281 8.679688 29.019531 9.179688 29.480469 9.261719 C 31.820312 9.738281 34.519531 10.578125 36.980469 12.121094 C 37.480469 12.421875 37.601562 13.101562 37.199219 13.558594 C 36.878906 13.921875 36.339844 13.960938 35.921875 13.71875 C 31.121094 10.761719 25.160156 10.601562 24 10.601562 C 22.839844 10.601562 16.878906 10.761719 12.078125 13.71875 C 11.660156 13.960938 11.121094 13.921875 10.800781 13.558594 C 10.398438 13.101562 10.519531 12.421875 11.019531 12.121094 C 13.480469 10.578125 16.179688 9.738281 18.519531 9.261719 C 18.980469 9.179688 19.261719 8.679688 19.078125 8.21875 C 18.980469 7.921875 18.679688 7.738281 18.359375 7.738281 L 18.28125 7.738281 C 16.199219 7.960938 11.398438 8.699219 8.039062 11.378906 C 6.078125 13.199219 2.179688 23.660156 2 32.921875 C 2 33.539062 2.160156 34.160156 2.519531 34.660156 C 4.859375 37.960938 9.941406 39.941406 13.78125 40.21875 C 14.359375 40.261719 14.921875 40 15.261719 39.519531 C 15.28125 39.519531 15.28125 39.5 15.300781 39.480469 C 16 38.519531 15.578125 37.160156 14.460938 36.738281 C 11.261719 35.558594 9.621094 34.160156 9.519531 34.058594 C 9.121094 33.699219 9.078125 33.101562 9.421875 32.699219 C 9.78125 32.300781 10.378906 32.261719 10.78125 32.621094 C 10.839844 32.660156 15.28125 36.441406 24 36.441406 C 32.71875 36.441406 37.160156 32.660156 37.21875 32.621094 C 37.621094 32.261719 38.21875 32.300781 38.578125 32.699219 C 38.921875 33.101562 38.878906 33.699219 38.480469 34.058594 C 38.378906 34.160156 36.738281 35.558594 33.539062 36.738281 C 32.421875 37.160156 32 38.519531 32.699219 39.480469 C 32.71875 39.5 32.71875 39.519531 32.738281 39.519531 C 33.078125 40 33.640625 40.261719 34.21875 40.21875 C 38.058594 39.941406 43.140625 37.960938 45.480469 34.660156 C 45.839844 34.160156 46 33.539062 46 32.921875 C 45.820312 23.660156 41.921875 13.199219 39.960938 11.378906 Z M 17.78125 29.738281 C 15.941406 29.738281 14.441406 28.019531 14.441406 25.921875 C 14.441406 23.800781 15.941406 22.078125 17.78125 22.078125 C 19.640625 22.078125 21.121094 23.800781 21.121094 25.921875 C 21.121094 28.019531 19.640625 29.738281 17.78125 29.738281 Z M 30.21875 29.738281 C 28.359375 29.738281 26.878906 28.019531 26.878906 25.921875 C 26.878906 23.800781 28.359375 22.078125 30.21875 22.078125 C 32.058594 22.078125 33.558594 23.800781 33.558594 25.921875 C 33.558594 28.019531 32.058594 29.738281 30.21875 29.738281 Z M 30.21875 29.738281 "/>
</g>
</svg>
