<svg width="30" height="17" viewBox="0 0 30 17" fill="none" xmlns="http://www.w3.org/2000/svg">
<path d="M28.2947 15.0249C29.0892 15.0249 29.7334 11.9474 29.7334 8.15114C29.7334 4.35485 29.0892 1.27734 28.2947 1.27734C27.5001 1.27734 26.856 4.35485 26.856 8.15114C26.856 11.9474 27.5001 15.0249 28.2947 15.0249Z" fill="#CCCCCC"/>
<path d="M21.7402 15.9842C24.0357 15.9842 25.8965 12.4773 25.8965 8.15129C25.8965 3.82528 24.0357 0.318359 21.7402 0.318359C19.4448 0.318359 17.584 3.82528 17.584 8.15129C17.584 12.4773 19.4448 15.9842 21.7402 15.9842Z" fill="#CCCCCC"/>
<path d="M8.3125 16.625C12.9034 16.625 16.625 12.9034 16.625 8.3125C16.625 3.72163 12.9034 0 8.3125 0C3.72163 0 0 3.72163 0 8.3125C0 12.9034 3.72163 16.625 8.3125 16.625Z" fill="#CCCCCC"/>
</svg>
