<svg width="50" height="50" viewBox="0 0 50 50" fill="none" xmlns="http://www.w3.org/2000/svg">
<path d="M2.77779 5.55469C1.24366 5.55469 0 6.79835 0 8.33247V47.2215C0 48.7556 1.24366 49.9993 2.77779 49.9993H41.6668C43.2009 49.9993 44.4446 48.7556 44.4446 47.2215H2.77779V5.55469Z" fill="#f05223"/>
<path fill-rule="evenodd" clip-rule="evenodd" d="M38.8891 13.888C40.4232 13.888 41.6669 12.6444 41.6669 11.1103C41.6669 9.57613 40.4232 8.33247 38.8891 8.33247C37.3549 8.33247 36.1113 9.57613 36.1113 11.1103C36.1113 12.6444 37.3549 13.888 38.8891 13.888ZM44.4446 11.1103C44.4446 14.1785 41.9573 16.6658 38.8891 16.6658C35.8208 16.6658 33.3335 14.1785 33.3335 11.1103C33.3335 8.042 35.8208 5.55469 38.8891 5.55469C41.9573 5.55469 44.4446 8.042 44.4446 11.1103Z" fill="#f05223"/>
<path fill-rule="evenodd" clip-rule="evenodd" d="M47.222 2.77779H8.33296V25.814L16.0914 18.0556C17.1762 16.9708 18.935 16.9708 20.0197 18.0556L30.5557 28.5915L36.9249 22.2222C38.0097 21.1375 39.7685 21.1375 40.8533 22.2222L47.222 28.5909V2.77779ZM47.222 32.5193L38.8891 24.1864L32.5199 30.5557L35.7044 33.7402L33.7402 35.7044L18.0556 20.0198L8.33296 29.7424V41.6668H47.222V32.5193ZM8.33296 0C6.79883 0 5.55518 1.24366 5.55518 2.77779V41.6668C5.55518 43.2009 6.79883 44.4446 8.33296 44.4446H47.222C48.7561 44.4446 49.9998 43.2009 49.9998 41.6668V2.77779C49.9998 1.24366 48.7561 0 47.222 0H8.33296Z" fill="#f05223"/>
</svg>
