<?xml version="1.0" standalone="no"?>
<!DOCTYPE svg PUBLIC "-//W3C//DTD SVG 1.0//EN" "http://www.w3.org/TR/2001/REC-SVG-20010904/DTD/svg10.dtd">
<svg xmlns="http://www.w3.org/2000/svg" xmlns:xlink="http://www.w3.org/1999/xlink" id="body_1" width="34" height="26">

<g transform="matrix(0.05078125 0 0 0.05078125 2.3749998 -0)">
    <path d="M568.2 336.3C 555.08 318.49 530.06 314.63998 512.27 327.831L512.27 327.831L392.57 416.00098L271.97 416.00098C 263.22202 416.00098 256.87 408.75098 256.87 400.011C 256.87 391.261 264.12 384.011 271.97 384.011L271.97 384.011L350.22 384.011C 365.32 384.011 380.97 373.13098 383.59 357.391C 386.84 337.391 371.47 320.011 351.97 320.011L351.97 320.011L191.1 320.011C 165 320.011 137.98001 329.261 116.98 346.261L116.98 346.261L70.48 384.00098L15.1 383.1C 7.251 383.1 0 391.3 0 400L0 400L0 495.98C 0 504.8 7.251 512 15.1 512L15.1 512L361.2 512C 383.23 512 405.12 504.812 422.90002 491.73L422.90002 491.73L558 392.21002C 577.5 379.1 581.3 354.1 568.2 336.3zM279.3 175C 271.7 173.9 261.7 170.3 252.9 167.1L252.9 167.1L248 165.4C 235.5 160.1 221.8 167.5 217.4 179.1C 212.99998 190.70001 219.521 205.3 231.98999 209.74L231.98999 209.74L236.64499 211.39601C 245.13098 214.45702 254.525 217.49101 264.03497 219.70801L264.03497 219.70801L264.03497 232C 264.03497 245.25 274.76498 256 288.01498 256C 301.26498 256 312.01498 245.25 312.01498 232L312.01498 232L312.01498 221.6C 337.28497 215.877 354.895 199.75 358.115 175.88C 366.80298 125.83 319.22498 112.22 293.695 104.93001L293.695 104.93001L288.4 103.1C 262.1 95.64 263.6 92.42 264.3 88.31C 265.456 81.544 279.59998 78.25 296.50998 80.919C 301.44797 81.7003 307.87997 83.465996 316.15997 86.340996C 328.68997 90.621994 342.36996 84.029 346.67996 71.50099C 350.98996 58.972984 344.37097 45.31099 331.83997 40.970993C 324.23798 38.343994 317.91995 36.61299 312.01996 35.249992L312.01996 35.249992L312.01996 24C 312.01996 10.75 301.26996 0 288.01996 0C 274.76996 0 264.03995 10.75 264.03995 24L264.03995 24L264.03995 34.52C 238.8 40.23 221.1 56.25 216.1 80.13C 208.4 129.6 256.7 143.8 274.9 149.2L274.9 149.2L281.39798 151.075C 313.05798 160.137 312.54797 162.965 311.73798 167.715C 310.6 174.5 296.5 177.8 279.3 175z" stroke="none" fill="#f05223"  />
</g>
</svg>