<svg width="46" height="46" viewBox="0 0 46 46" fill="none" xmlns="http://www.w3.org/2000/svg">
<path fill-rule="evenodd" clip-rule="evenodd" d="M34.0002 14.166C35.565 14.166 36.8335 12.8975 36.8335 11.3327C36.8335 9.76788 35.565 8.49935 34.0002 8.49935C32.4354 8.49935 31.1668 9.76788 31.1668 11.3327C31.1668 12.8975 32.4354 14.166 34.0002 14.166ZM39.6668 11.3327C39.6668 14.4623 37.1298 16.9993 34.0002 16.9993C30.8705 16.9993 28.3335 14.4623 28.3335 11.3327C28.3335 8.20307 30.8705 5.66602 34.0002 5.66602C37.1298 5.66602 39.6668 8.20307 39.6668 11.3327Z" fill="#f05223"/>
<path fill-rule="evenodd" clip-rule="evenodd" d="M42.5 2.83333H2.83333V26.3299L10.7468 18.4165C11.8533 17.31 13.6473 17.31 14.7537 18.4165L25.5003 29.163L31.9968 22.6665C33.1033 21.56 34.8973 21.56 36.0037 22.6665L42.5 29.1627V2.83333ZM42.5 33.1697L34.0003 24.6699L27.5037 31.1665L30.752 34.4147L28.7485 36.4182L12.7503 20.4199L2.83333 30.3369V42.5H42.5V33.1697ZM2.83333 0C1.26853 0 0 1.26853 0 2.83333V42.5C0 44.0648 1.26853 45.3333 2.83333 45.3333H42.5C44.0648 45.3333 45.3333 44.0648 45.3333 42.5V2.83333C45.3333 1.26853 44.0648 0 42.5 0H2.83333Z" fill="#f05223"/>
</svg>
