<svg width="23" height="20" viewBox="0 0 23 20" fill="none" xmlns="http://www.w3.org/2000/svg">
<g clip-path="url(#clip0)">
<path d="M12.475 15.0129C12.0285 15.4441 11.5885 15.8678 11.1496 16.2931C10.7231 16.7062 10.2989 17.1222 9.87236 17.5353C9.62979 17.7702 9.3591 17.9425 8.9683 17.9237C8.99467 17.4761 9.0181 17.0413 9.04623 16.6072C9.1265 15.3738 9.20149 14.1405 9.29875 12.9089C9.31047 12.7572 9.41476 12.5796 9.53136 12.4748C12.5711 9.72567 15.6178 6.98478 18.6628 4.24213C18.7712 4.14487 18.8866 4.05054 18.9739 3.9357C19.0998 3.77048 19.026 3.61931 18.8385 3.64685C18.5883 3.68376 18.3235 3.7611 18.1102 3.8941C16.1539 5.11397 14.2075 6.35024 12.2582 7.58123C10.3909 8.76009 8.52242 9.93718 6.65865 11.1213C6.48639 11.2309 6.34225 11.249 6.14597 11.1858C4.53648 10.6666 2.9223 10.1622 1.31164 9.64832C1.13762 9.59266 0.961848 9.52177 0.808339 9.42392C0.440974 9.18839 0.388242 8.8345 0.721039 8.55326C0.989971 8.32593 1.31164 8.13843 1.63916 8.00778C3.08284 7.43066 4.53765 6.8799 5.98836 6.32036C11.1303 4.33705 16.2717 2.35375 21.4136 0.370442C22.3804 -0.00278291 23.0864 0.495826 22.9528 1.5282C22.835 2.44105 22.6089 3.341 22.4173 4.24331C21.4493 8.80637 20.4785 13.3689 19.5047 17.9313C19.2504 19.1219 18.4501 19.4184 17.4693 18.6948C15.9031 17.5394 14.3382 16.3822 12.7726 15.2256C12.6795 15.1576 12.5845 15.0914 12.475 15.0129Z" fill="#AAB0B7"/>
</g>
<defs>
<clipPath id="clip0">
<rect width="22.4696" height="18.8388" fill="white" transform="translate(0.5 0.25)"/>
</clipPath>
</defs>
</svg>
