<svg width="26" height="26" viewBox="0 0 26 26" fill="none" xmlns="http://www.w3.org/2000/svg">
<mask id="mask0" mask-type="alpha" maskUnits="userSpaceOnUse" x="0" y="0" width="26" height="26">
<rect x="0.625" y="0.625" width="24.5" height="24.5" fill="white"/>
</mask>
<g mask="url(#mask0)">
<path fill-rule="evenodd" clip-rule="evenodd" d="M25.0777 5.28901C24.1591 5.69194 23.1862 5.95729 22.1902 6.07651C23.2379 5.44697 24.0224 4.45954 24.3987 3.29663C23.4087 3.87288 22.3301 4.28119 21.2067 4.50501C19.7977 3.00366 17.6149 2.51476 15.7001 3.27165C13.7853 4.02854 12.5267 5.87778 12.525 7.93675C12.525 8.32343 12.5685 8.70823 12.6546 9.08451C8.61583 8.89123 4.85014 6.98829 2.29886 3.85138C1.84855 4.61669 1.61363 5.48956 1.61898 6.37751C1.61745 8.05774 2.45584 9.62729 3.85305 10.5601C3.05534 10.5347 2.27526 10.319 1.57786 9.93088L1.57786 9.99301C1.57643 12.3845 3.25999 14.4454 5.60325 14.9211C4.86651 15.1199 4.09439 15.1498 3.34449 15.0085C4.00623 17.0549 5.8938 18.4557 8.04411 18.4963C6.26734 19.8906 4.07355 20.6475 1.81498 20.6453C1.41734 20.6444 1.02006 20.6213 0.625 20.5761C2.92798 22.0492 5.60522 22.8305 8.33899 22.8275C17.5816 22.8275 22.6295 15.1756 22.6295 8.55013C22.6295 8.33663 22.6295 8.12138 22.6146 7.90701C23.6001 7.19825 24.4504 6.31833 25.125 5.30913L25.0777 5.28901Z" fill="#CCCCCC"/>
</g>
</svg>
